<svg xmlns="http://www.w3.org/2000/svg" xmlns:xlink="http://www.w3.org/1999/xlink" fill="white" viewBox="0 0 18 18" fit="" preserveAspectRatio="xMidYMid meet" focusable="false"><path d="M12.11 8.615a2.31 2.31 0 0 0 2.326-2.307A2.31 2.31 0 0 0 12.11 4a2.317 2.317 0 0 0-2.33 2.308 2.317 2.317 0 0 0 2.333 2.307zm.088 1.54c-.646 0-1.62.196-2.42.585.77.375 1.382.925 1.382 1.657v.962a.64.64 0 0 1-.642.64h4.84a.642.642 0 0 0 .642-.64v-.97c0-1.5-2.537-2.25-3.802-2.25zm-6.698 0c-1.165 0-3.5.75-3.5 2.242v.962c0 .35.265.64.59.64h5.82c.325 0 .59-.29.59-.64v-.97c0-1.49-2.335-2.24-3.5-2.24zm.004-1.54A2.31 2.31 0 0 0 7.83 6.308 2.31 2.31 0 0 0 5.503 4 2.317 2.317 0 0 0 3.17 6.308a2.317 2.317 0 0 0 2.334 2.307z" fill-rule="evenodd"></path></svg>