<svg xmlns="http://www.w3.org/2000/svg" xmlns:xlink="http://www.w3.org/1999/xlink" fill="white" viewBox="0 0 24 24" fit="" preserveAspectRatio="xMidYMid meet" focusable="false"><path d="M3 4.995C3 3.893 3.893 3 4.995 3h14.01C20.107 3 21 3.893 21 4.995v14.01A1.995 1.995 0 0 1 19.005 21H4.995A1.995 1.995 0 0 1 3 19.005V4.995zM21 13v2H3v-2h18zM5 17h2v2H5v-2zM5 5h14v2H5V5zm0 4h2v2H5V9zm12 0h2v2h-2V9zm-4 0h2v2h-2V9zM9 9h2v2H9V9zm8 8h2v2h-2v-2zm-4 0h2v2h-2v-2zm-4 0h2v2H9v-2z" fill-rule="evenodd"></path></svg>